<svg id="bank" xmlns="http://www.w3.org/2000/svg" width="68.838" height="68.838" viewBox="0 0 68.838 68.838">
  <path id="Path_4215" data-name="Path 4215" d="M68.727,25.426a1.11,1.11,0,0,0,1.11-1.11V6.551a1.11,1.11,0,0,0-1.11-1.11h-1.11V2.11A1.11,1.11,0,0,0,66.507,1H4.331a1.11,1.11,0,0,0-1.11,1.11V5.441H2.11A1.11,1.11,0,0,0,1,6.551V24.316a1.11,1.11,0,0,0,1.11,1.11h1.11v37.75H2.11A1.11,1.11,0,0,0,1,64.286v4.441a1.11,1.11,0,0,0,1.11,1.11H68.727a1.11,1.11,0,0,0,1.11-1.11V64.286a1.11,1.11,0,0,0-1.11-1.11h-1.11V25.426ZM5.441,3.221H65.4V5.441H5.441ZM3.221,7.662h64.4V23.206H3.221ZM65.4,36.529H52.073V29.867H65.4Zm-15.544,0H36.529V29.867H49.852Zm-15.544,0H20.985V29.867H34.308Zm-15.544,0H5.441V29.867H18.765ZM67.617,67.617H3.221V65.4h64.4ZM38.75,63.176H36.529V46.522a1.11,1.11,0,0,0-1.11-1.11H13.213a1.11,1.11,0,0,0-1.11,1.11V63.176H9.882V43.191H38.75Zm-24.426,0V47.632h8.882V63.176Zm11.1-15.544h8.882V63.176H25.426ZM60.955,63.176H47.632V43.191H60.955Zm2.221,0V42.08a1.11,1.11,0,0,0-1.11-1.11H46.522a1.11,1.11,0,0,0-1.11,1.11v21.1H40.97V42.08a1.11,1.11,0,0,0-1.11-1.11H8.772a1.11,1.11,0,0,0-1.11,1.11v21.1H5.441V38.75H65.4V63.176ZM65.4,27.647H5.441V25.426H65.4Z" transform="translate(-1 -1)" fill="#fc8035"/>
  <path id="Path_4216" data-name="Path 4216" d="M19.551,9H15.11A1.11,1.11,0,0,0,14,10.11v8.882a1.11,1.11,0,0,0,1.11,1.11h4.441a3.329,3.329,0,0,0,2.48-5.551A3.329,3.329,0,0,0,19.551,9Zm0,8.882H16.221V15.662h3.331a1.11,1.11,0,0,1,0,2.221Zm0-4.441H16.221V11.221h3.331a1.11,1.11,0,0,1,0,2.221Z" transform="translate(0.434 -0.118)" fill="#fc8035"/>
  <path id="Path_4217" data-name="Path 4217" d="M28.441,9A4.446,4.446,0,0,0,24,13.441V20.1h2.221V16.772h4.441V20.1h2.221V13.441A4.446,4.446,0,0,0,28.441,9Zm-2.221,5.551v-1.11a2.221,2.221,0,1,1,4.441,0v1.11Z" transform="translate(1.536 -0.118)" fill="#fc8035"/>
  <path id="Path_4218" data-name="Path 4218" d="M40.662,15.662,36,9.444a1.11,1.11,0,0,0-2,.666V20.1h2.221V13.441l4.663,6.218a1.111,1.111,0,0,0,.888.444,1.131,1.131,0,0,0,.351-.057,1.11,1.11,0,0,0,.759-1.054V9H40.662Z" transform="translate(2.639 -0.118)" fill="#fc8035"/>
  <path id="Path_4219" data-name="Path 4219" d="M50.662,9H48.441a4.247,4.247,0,0,1-2.221,3.742V9H44V20.1h2.221V16.361A4.247,4.247,0,0,1,48.441,20.1h2.221a6.449,6.449,0,0,0-3.149-5.551A6.449,6.449,0,0,0,50.662,9Z" transform="translate(3.742 -0.118)" fill="#fc8035"/>
  <path id="Path_4220" data-name="Path 4220" d="M46.11,49.882h6.662a1.11,1.11,0,0,0,1.11-1.11V42.11A1.11,1.11,0,0,0,52.772,41H46.11A1.11,1.11,0,0,0,45,42.11v6.662A1.11,1.11,0,0,0,46.11,49.882Zm1.11-6.662h4.441v4.441H47.221Z" transform="translate(3.852 3.411)" fill="#fc8035"/>
</svg>
