<svg xmlns="http://www.w3.org/2000/svg" width="47.922" height="45.926" viewBox="0 0 47.922 45.926">
  <g id="ic_cart" transform="translate(0.5 0.5)">
    <path id="Path_4501" data-name="Path 4501" d="M15.993,32a2,2,0,1,1-2-2A2,2,0,0,1,15.993,32Z" transform="translate(3.475 9.433)" fill="none" stroke="#fc8035" stroke-linecap="round" stroke-linejoin="round" stroke-width="4"/>
    <path id="Path_4502" data-name="Path 4502" d="M32.493,32a2,2,0,1,1-2-2A2,2,0,0,1,32.493,32Z" transform="translate(8.936 9.433)" fill="none" stroke="#fc8035" stroke-linecap="round" stroke-linejoin="round" stroke-width="4"/>
    <path id="Path_4503" data-name="Path 4503" d="M1.5,1.5H9.486l5.351,26.733a3.993,3.993,0,0,0,3.993,3.214H38.235a3.993,3.993,0,0,0,3.993-3.214l3.194-16.75H11.482" fill="none" stroke="#fc8035" stroke-linecap="round" stroke-linejoin="round" stroke-width="4"/>
  </g>
</svg>
