<svg id="portfolio" xmlns="http://www.w3.org/2000/svg" width="55.543" height="70.906" viewBox="0 0 55.543 70.906">
  <path id="Path_82" data-name="Path 82" d="M44.806,0H6.5V70.906H62.043V17.237ZM45.5,4.035l12.51,12.51H45.5ZM8.864,68.542V2.364H43.135V18.908H59.679V68.542Z" transform="translate(-6.5 0)" fill="#fc8035"/>
  <path id="Path_83" data-name="Path 83" d="M37.772,37.364a1.182,1.182,0,0,0,0-2.364H17.682a1.182,1.182,0,0,0,0,2.364Z" transform="translate(-4.682 6.362)" fill="#fc8035"/>
  <path id="Path_84" data-name="Path 84" d="M45.954,30H37.682a1.182,1.182,0,0,0,0,2.364h8.272a1.182,1.182,0,0,0,0-2.364Z" transform="translate(-1.047 5.453)" fill="#fc8035"/>
  <path id="Path_85" data-name="Path 85" d="M21.5,31.182a1.181,1.181,0,0,0,1.182,1.182H34.5A1.182,1.182,0,0,0,34.5,30H22.682A1.181,1.181,0,0,0,21.5,31.182Z" transform="translate(-3.773 5.453)" fill="#fc8035"/>
  <path id="Path_86" data-name="Path 86" d="M16.843,30.34a1.238,1.238,0,0,0-.343.839,1.192,1.192,0,0,0,.343.827,1.165,1.165,0,0,0,.839.355,1.22,1.22,0,0,0,.839-.343,1.187,1.187,0,0,0-1.678-1.678Z" transform="translate(-4.682 5.456)" fill="#fc8035"/>
  <path id="Path_87" data-name="Path 87" d="M38.843,35.34a1.216,1.216,0,0,0-.343.839,1.17,1.17,0,0,0,.343.839,1.2,1.2,0,0,0,1.678,0,1.17,1.17,0,0,0,.343-.839,1.182,1.182,0,0,0-2.021-.839Z" transform="translate(-0.684 6.364)" fill="#fc8035"/>
  <path id="Path_88" data-name="Path 88" d="M43.843,35.34a1.216,1.216,0,0,0-.343.839,1.17,1.17,0,0,0,.343.839,1.243,1.243,0,0,0,.839.343,1.2,1.2,0,0,0,.839-.355,1.163,1.163,0,0,0,.343-.827,1.182,1.182,0,0,0-2.021-.839Z" transform="translate(0.225 6.364)" fill="#fc8035"/>
  <path id="Path_89" data-name="Path 89" d="M24.149,40.188c-2.588,1.347-3.459,3.925-3.777,6.6L18.9,45.556c-1.158-.97-2.839.693-1.671,1.672l3.316,2.778a1.2,1.2,0,0,0,2.017-.836c.086-2.56.207-5.6,2.775-6.94C26.693,41.527,25.5,39.486,24.149,40.188Z" transform="translate(-4.621 7.278)" fill="#fc8035"/>
  <path id="Path_90" data-name="Path 90" d="M38.732,44.17c-1.723-.109-4.245,2.547-5.573.181a1.2,1.2,0,0,0-1.617-.424c-1.673,1.027-3.861,2.5-5.62.591-1.032-1.121-2.7.553-1.671,1.671,2.21,2.4,5.053,1.672,7.562.311a3.883,3.883,0,0,0,2.171,1.277c.936.189,4.757-1.348,4.963-1.065.889,1.216,2.94.038,2.041-1.192A2.728,2.728,0,0,0,38.732,44.17Z" transform="translate(-3.332 7.955)" fill="#fc8035"/>
  <path id="Path_91" data-name="Path 91" d="M31.1,26.927l.8-.566-.407-.889a3.722,3.722,0,0,0-1.714-1.81l-2.505-1.279a6.089,6.089,0,0,0,2.476-3.31,2.737,2.737,0,0,0,1.318-2.345V15.94a2.734,2.734,0,0,0-.938-2.062c-.422-2.243-1.943-4.669-6.547-4.669-.181,0-.358.007-.533.021a3.6,3.6,0,0,1-2.289-.518,2.746,2.746,0,0,1-.631-.542,1.339,1.339,0,0,0-2.385.98c.035.3.086.658.163,1.045a3.434,3.434,0,0,1,.1.677,3.321,3.321,0,0,1-.132.306c-.083.177-.184.4-.3.688a9.019,9.019,0,0,0-.557,2.031,2.745,2.745,0,0,0-.919,2.044v.788a2.737,2.737,0,0,0,1.318,2.345,6.089,6.089,0,0,0,2.462,3.3l-2.6,1.285a3.719,3.719,0,0,0-1.633,1.821l-.378.876.775.554a12.956,12.956,0,0,0,15.067.017ZM18.517,25.679l2.889-1.423a1.777,1.777,0,0,0,1-1.6v-1.68l-.714-.308a3.8,3.8,0,0,1-2.15-2.743l-.169-.63-.623-.194a.4.4,0,0,1-.284-.37v-.788a.393.393,0,0,1,.217-.342l.554-.3.065-.625a6.937,6.937,0,0,1,.462-1.917c.1-.249.189-.435.26-.587a3.277,3.277,0,0,0,.334-1.01,6.225,6.225,0,0,0,2.884.423q.168-.014.344-.014c3.45,0,4.1,1.576,4.28,3.117l.072.618.551.29a.394.394,0,0,1,.219.343v.788a.4.4,0,0,1-.284.37l-.623.194-.169.63a3.8,3.8,0,0,1-2.15,2.743l-.714.308v1.688a1.78,1.78,0,0,0,.975,1.592L28.6,25.711A10.73,10.73,0,0,1,18.517,25.679Z" transform="translate(-4.908 1.392)" fill="#fc8035"/>
</svg>
