<svg xmlns="http://www.w3.org/2000/svg" xmlns:xlink="http://www.w3.org/1999/xlink" width="158" height="157" viewBox="0 0 158 157">
  <defs>
    <filter id="Ellipse_19" x="0" y="0" width="158" height="157" filterUnits="userSpaceOnUse">
      <feOffset input="SourceAlpha"/>
      <feGaussianBlur stdDeviation="6" result="blur"/>
      <feFlood flood-color="#fe7524" flood-opacity="0.349"/>
      <feComposite operator="in" in2="blur"/>
      <feComposite in="SourceGraphic"/>
    </filter>
    <clipPath id="clip-path">
      <rect id="Rectangle_920" data-name="Rectangle 920" width="66.395" height="68.49" fill="#fe7524"/>
    </clipPath>
  </defs>
  <g id="ic_cash" transform="translate(-571 -267)">
    <g transform="matrix(1, 0, 0, 1, 571, 267)" filter="url(#Ellipse_19)">
      <ellipse id="Ellipse_19-2" data-name="Ellipse 19" cx="61" cy="60.5" rx="61" ry="60.5" transform="translate(18 18)" fill="#fff"/>
    </g>
    <g id="Group_1234" data-name="Group 1234" transform="translate(616.803 311.255)">
      <g id="Group_1233" data-name="Group 1233" clip-path="url(#clip-path)">
        <path id="Path_3903" data-name="Path 3903" d="M33.2,72.367A33.235,33.235,0,0,1,0,39.169H3.157a30.032,30.032,0,1,0,12.967-24.72l-1.8-2.6A33.2,33.2,0,1,1,33.2,72.367" transform="translate(0 -3.877)" fill="#fe7524"/>
        <path id="Path_3904" data-name="Path 3904" d="M25.676,0,36.5,15.933l-16-.754Z" transform="translate(-13.305 0)" fill="#fe7524"/>
        <path id="Path_3905" data-name="Path 3905" d="M59.05,72.931c-.552.232-1.1.464-1.643.688q-3.236,1.324-6.473,2.647a.716.716,0,0,1-.643-.017c-2.732-1.356-5.472-2.7-8.2-4.056-1.309-.652-2.6-1.337-3.9-2.01a4.591,4.591,0,0,1-.43-.256.708.708,0,0,1-.308-.848.965.965,0,0,1,.764-.608.724.724,0,0,1,.282.089c2.07,1.017,4.142,2.03,6.207,3.058q2.828,1.408,5.641,2.846a.621.621,0,0,0,.583.028q3.857-1.628,7.726-3.229a.557.557,0,0,0,.416-.627c-.027-.541-.007-1.085-.007-1.678-.123.045-.2.072-.283.1-2.562,1.044-5.125,2.082-7.681,3.138a1.1,1.1,0,0,1-.993-.036c-2.37-1.183-4.753-2.341-7.122-3.527-1.592-.8-3.168-1.624-4.749-2.442a4.214,4.214,0,0,1-.509-.32.716.716,0,0,1-.032-1.185,1.7,1.7,0,0,1,.412-.235q11.119-4.668,22.24-9.328c1.095-.459,2.206-.876,3.3-1.333a1.134,1.134,0,0,1,1.006.03c1.119.546,2.253,1.061,3.366,1.619,2.922,1.463,5.836,2.942,8.753,4.415.127.064.25.136.373.206a.681.681,0,0,1,.038,1.229c-.72.387-1.466.728-2.217,1.051-1.773.763-3.555,1.506-5.336,2.25a.3.3,0,0,0-.23.327c.008.5-.009,1-.012,1.5,0,.106.017.212.03.355.128-.043.229-.071.325-.111q2.9-1.19,5.8-2.381c.332-.136.672-.256,1.015-.362a.7.7,0,0,1,.872.441.731.731,0,0,1-.283.982c-.854.4-1.714.792-2.583,1.16q-2.447,1.037-4.908,2.04a.351.351,0,0,0-.255.388c.006.485-.013.97-.017,1.454,0,.157.013.314.022.513.141-.044.251-.069.354-.112Q73,69.457,76.242,68.115a.931.931,0,0,1,.887.006.734.734,0,0,1,.36.721.636.636,0,0,1-.375.648c-1.318.572-2.631,1.157-3.952,1.723-1.183.507-2.373,1-3.563,1.486a.318.318,0,0,0-.231.352c.011.6,0,1.2,0,1.841l.344-.139c2.232-.9,4.467-1.792,6.692-2.707a.771.771,0,0,1,1.077.878.641.641,0,0,1-.444.544c-2.023.858-4.036,1.742-6.065,2.585q-9.885,4.109-19.775,8.2a1.177,1.177,0,0,1-1.065-.02c-2.442-1.209-4.895-2.395-7.334-3.606-1.632-.81-3.25-1.648-4.871-2.48a.8.8,0,0,1-.5-.911.734.734,0,0,1,1.051-.583c1.564.738,3.125,1.484,4.677,2.249q3.654,1.8,7.292,3.639a.5.5,0,0,0,.469.021q3.979-1.661,7.961-3.314c.079-.033.192-.119.193-.183.014-.65.009-1.3.009-1.994-.42.173-.8.331-1.187.488-2.2.9-4.4,1.78-6.588,2.7a1.524,1.524,0,0,1-1.394-.056c-2.306-1.162-4.633-2.282-6.939-3.444-1.687-.85-3.353-1.741-5.026-2.616a1.5,1.5,0,0,1-.334-.219.645.645,0,0,1-.082-.887c.263-.389.557-.517.9-.352,1.741.834,3.483,1.666,5.214,2.52,2.287,1.126,4.564,2.273,6.85,3.4a.5.5,0,0,0,.365.014c2.651-1.088,5.3-2.187,7.949-3.278A.321.321,0,0,0,59.054,75c-.011-.676,0-1.352,0-2.071m1.725,5.5c.192-.071.309-.111.423-.158Q64.293,77,67.388,75.722a.272.272,0,0,0,.192-.3c0-.911,0-1.823.006-2.734q.012-3.9.027-7.8a.314.314,0,0,0-.2-.328c-.442-.219-.875-.455-1.313-.682q-4.763-2.47-9.525-4.944a.879.879,0,0,0-.84-.033c-1.918.827-3.845,1.634-5.769,2.448-.11.047-.217.1-.358.167.089.055.136.088.187.114q1.44.736,2.881,1.47,3.8,1.93,7.605,3.851a.694.694,0,0,1,.45.724c0,.05,0,.1,0,.15q.022,4.44.042,8.879c0,.557,0,1.115,0,1.724M57.807,67.595c-.115-.068-.17-.1-.229-.134q-4.986-2.474-9.976-4.939a.54.54,0,0,0-.4-.01q-3.313,1.368-6.618,2.756a2.175,2.175,0,0,0-.2.11c.1.059.178.108.257.149q4.935,2.492,9.874,4.976a.473.473,0,0,0,.346,0q2.366-.97,4.724-1.958c.724-.3,1.444-.615,2.214-.944m16.749-6.938c-.145-.079-.222-.125-.3-.165q-4.986-2.5-9.976-4.993a.532.532,0,0,0-.394-.015c-1.336.553-2.665,1.119-4,1.683-.521.221-1.04.448-1.6.689.117.069.192.119.271.16,2.206,1.155,4.409,2.316,6.62,3.462,1.038.538,2.093,1.045,3.14,1.565a.629.629,0,0,0,.571.023c1.305-.561,2.617-1.105,3.925-1.658.561-.237,1.118-.482,1.741-.751" transform="translate(-24.272 -34.856)" fill="#fe7524"/>
      </g>
    </g>
  </g>
</svg>
