<svg xmlns="http://www.w3.org/2000/svg" width="80.499" height="80.499" viewBox="0 0 80.499 80.499">
  <g id="Icon_ionic-ios-image" data-name="Icon ionic-ios-image" transform="translate(-3.375 -3.375)">
    <path id="Path_4497" data-name="Path 4497" d="M8.609,42.236h36.9a1.078,1.078,0,0,0,.871-1.7L27.921,10.85a1.067,1.067,0,0,0-1.761,0L7.719,40.534A1.085,1.085,0,0,0,8.609,42.236Z" transform="translate(7.267 12.283)" fill="#fc843c"/>
    <path id="Path_4498" data-name="Path 4498" d="M21.687,22.907l6.773,10.778a1.049,1.049,0,0,0,.871.464H39.625a1.078,1.078,0,0,0,.871-1.7L28.575,15.476a1.067,1.067,0,0,0-1.761,0l-5.147,6.212A1.116,1.116,0,0,0,21.687,22.907Z" transform="translate(31.749 20.389)" fill="#fc843c"/>
    <path id="Path_4499" data-name="Path 4499" d="M28.485,18.686a5.417,5.417,0,1,0-5.941-5.941A5.437,5.437,0,0,0,28.485,18.686Z" transform="translate(33.542 7.891)" fill="#fc843c"/>
    <path id="Path_4500" data-name="Path 4500" d="M77.682,3.375H9.567A6.186,6.186,0,0,0,3.375,9.567V77.682a6.186,6.186,0,0,0,6.192,6.192H77.682a6.186,6.186,0,0,0,6.192-6.192V9.567A6.186,6.186,0,0,0,77.682,3.375Zm-.522,54.182a1.553,1.553,0,0,1-1.548,1.548H11.638a1.553,1.553,0,0,1-1.548-1.548V11.638a1.553,1.553,0,0,1,1.548-1.548H75.631a1.553,1.553,0,0,1,1.548,1.548V57.557Z" fill="#fc843c"/>
  </g>
</svg>
