<svg xmlns="http://www.w3.org/2000/svg" width="426.113" height="239.305" viewBox="0 0 426.113 239.305">
  <g id="ic_logo_bg" transform="translate(-533.316 -74)">
    <path id="Path_7" data-name="Path 7" d="M192.225,180.21a76.406,76.406,0,0,1-31.133-6.628,80.638,80.638,0,0,1-25.744-18.1,85.612,85.612,0,0,1-17.461-26.839,86.551,86.551,0,0,1-6.433-32.68v-.6l.013-.018.015-.732V93.4c.013-.16.022-.321.022-.527l.018-.432v-.217l.02-.038.035-.47v-.579a83.529,83.529,0,0,1,16.472-45.826A79.233,79.233,0,0,1,144.874,28.7a75.578,75.578,0,0,1,20.09-10.553,9.243,9.243,0,0,1,1.745.5,9.338,9.338,0,0,1,2.226,1.27,9.092,9.092,0,0,1,1.861,1.818,10.82,10.82,0,0,1,1.445,2.435,10.2,10.2,0,0,1,.733,3.773,9.588,9.588,0,0,1-.665,3.6,9.162,9.162,0,0,1-1.931,3.136,9.007,9.007,0,0,1-3.073,2.17,59.709,59.709,0,0,0-15.684,9.678,61.747,61.747,0,0,0-11.991,13.763,65.458,65.458,0,0,0-7.637,16.842,67.7,67.7,0,0,0,2.384,44.264,66.288,66.288,0,0,0,13.5,20.789,62.709,62.709,0,0,0,19.961,14.061,59.984,59.984,0,0,0,24.308,5.191,57.98,57.98,0,0,0,13.027-1.445,56.911,56.911,0,0,0,12.006-4.053,60.376,60.376,0,0,0,10.787-6.508,63.941,63.941,0,0,0,9.213-8.45l6.271-7.06-29.1-.138a8.48,8.48,0,0,1-3.581-.762,9.579,9.579,0,0,1-3.115-2.159,10.356,10.356,0,0,1-2.83-7.06,10.317,10.317,0,0,1,.418-2.993,10.07,10.07,0,0,1,1.191-2.536,10.461,10.461,0,0,1,1.841-2.093,8.416,8.416,0,0,1,1.653-1.135l59,.3a82.934,82.934,0,0,1-8.051,22.586,80.449,80.449,0,0,1-17.021,22.1A77.048,77.048,0,0,1,220.4,174.832a74.837,74.837,0,0,1-28.021,5.378Z" transform="translate(662.156 96.874)"/>
    <path id="Path_8" data-name="Path 8" d="M203.206,226.611a103.3,103.3,0,0,1-32.9-5.389,108.572,108.572,0,0,1-29.216-15.185,114.024,114.024,0,0,1-23.409-23.3,116.056,116.056,0,0,1-15.366-28.1c1.313-3.24,2.478-6.527,3.478-9.8a121.78,121.78,0,0,0,3.034-11.866c.81-4,1.434-8.132,1.861-12.278.4-4.191.6-8.435.6-12.639,0-3.746-.16-7.359-.486-11.012-.3-3.436-.777-7.042-1.432-10.713-.582-3.332-1.342-6.75-2.3-10.381-.76-2.81-1.618-5.636-2.576-8.423a110.606,110.606,0,0,1,15.566-25.29,106.021,106.021,0,0,1,22.68-20.663,103.462,103.462,0,0,1,27.664-13.2A100.386,100.386,0,0,1,199.833,4.02c.591,0,1.178,0,1.769.029a8.9,8.9,0,0,1,3.623.787,9.883,9.883,0,0,1,2.962,2.114,10.039,10.039,0,0,1,2.1,3.163,10.152,10.152,0,0,1,.072,7.537,9.2,9.2,0,0,1-1.955,2.98,8.627,8.627,0,0,1-2.863,2.023,9.371,9.371,0,0,1-3.555.678h-1.136c-2.036,0-4.076.059-6.063.19-2.482.188-4.851.457-7.053.816-2.018.328-4.406.742-6.84,1.332-2.165.547-4.391,1.185-6.641,1.953a84.77,84.77,0,0,0-23.2,11.961,88.076,88.076,0,0,0-18.617,18.345,91.166,91.166,0,0,0-12.7,23.5,93.038,93.038,0,0,0-5.483,27.32l-.018.151c-.018.224-.026.45-.026.61l-.028.5v.545l-.026.355v.809c-.013.1-.013.337-.013.592,0,.147-.009.355-.009.579v.751a95.141,95.141,0,0,0,7.077,36.09,93.682,93.682,0,0,0,19.164,29.518,88.06,88.06,0,0,0,28.345,19.921,84.01,84.01,0,0,0,34.375,7.322h.155a83.3,83.3,0,0,0,31.007-5.952,85.265,85.265,0,0,0,25.915-16.315,90.163,90.163,0,0,0,18.8-24.352,92.48,92.48,0,0,0,9.778-30.271l.685-4.824-69.309-.461h-7.044c-1.123,0-2.165,0-3.119-.018,0,0-1.653-.018-2.3-.018H202.67a9.145,9.145,0,0,1-3.673-.8,9.539,9.539,0,0,1-3.045-2.148,9.975,9.975,0,0,1-2.082-3.158,10.515,10.515,0,0,1-.764-3.934,10.706,10.706,0,0,1,.714-3.9,9.6,9.6,0,0,1,1.968-2.984,8.9,8.9,0,0,1,6.5-2.787l105.678.855.153,9.775a113.706,113.706,0,0,1-7.594,42.994,109.218,109.218,0,0,1-22.13,35.368,104.51,104.51,0,0,1-33.458,24.1,101.806,101.806,0,0,1-41.514,8.955Z" transform="translate(651.294 79.068)" fill="#ef5713"/>
    <path id="Path_9" data-name="Path 9" d="M145.278,161.522a7.181,7.181,0,0,1-1.668-.167,8.07,8.07,0,0,1-1.823-.488,6.91,6.91,0,0,1-1.5-.771,11.734,11.734,0,0,1-1.672-1.257L112.9,134.746,91.132,114.357,66.891,91.628,53.8,79.387a10.451,10.451,0,0,1-2.331-3.3,10,10,0,0,1-.867-3.728,10.937,10.937,0,0,1,.567-3.915A10.7,10.7,0,0,1,53.188,65a8.817,8.817,0,0,1,1.545-1.372,7.806,7.806,0,0,1,1.823-1.069,13.691,13.691,0,0,1,2.15-.714A10.771,10.771,0,0,1,60.6,61.7c.21,0,.4.009.591.018l.278.007c.232.029.4.068.587.095l.149.029c.3.047.514.093.72.142l.123.025,91.293,85.368a11.6,11.6,0,0,1,.611,2.179,10.717,10.717,0,0,1,.044,2.964,10.362,10.362,0,0,1-.781,2.95,11.344,11.344,0,0,1-1.7,2.686,10.512,10.512,0,0,1-1.561,1.426,9.862,9.862,0,0,1-1.812,1.09,9.469,9.469,0,0,1-1.863.638,10.177,10.177,0,0,1-2,.206" transform="translate(589.799 151.783)" fill="#ef5713"/>
    <path id="Path_10" data-name="Path 10" d="M112.275,226.441a107.145,107.145,0,0,1-43.192-8.975,110,110,0,0,1-35.465-24.727A113.254,113.254,0,0,1,9.9,156.1a115.855,115.855,0,0,1,1.272-88.8A112.767,112.767,0,0,1,35.636,31.686,109.9,109.9,0,0,1,71.2,8.082,108.017,108.017,0,0,1,112.271,0c.6,0,1.2.02,1.8.02a108.12,108.12,0,0,1,33.552,5.941,110.053,110.053,0,0,1,29.168,15.407,113.031,113.031,0,0,1,23.266,23.208A114.6,114.6,0,0,1,215.9,73.931c1.105,3.07,2.086,6.215,2.927,9.314.9,3.4,1.6,6.563,2.145,9.66.611,3.416,1.051,6.768,1.324,9.972.309,3.407.457,6.768.457,10.241,0,3.906-.195,7.867-.563,11.774-.4,3.868-.983,7.725-1.727,11.414a112.194,112.194,0,0,1-2.828,11.023,107.235,107.235,0,0,1-3.835,10.589c-.606,1.417-1.254,2.873-1.942,4.329-.681,1.5-1.39,2.9-2.115,4.318-.736,1.361-1.423,2.618-2.15,3.868l-14.331-13.406c1.362-2.593,2.583-5.211,3.647-7.8a90.451,90.451,0,0,0,3.909-11.566,89.329,89.329,0,0,0,2.421-12.131,96.559,96.559,0,0,0,.865-12.572,94.771,94.771,0,0,0-7.072-36.18,93.182,93.182,0,0,0-19.285-29.613,91.212,91.212,0,0,0-28.561-20.2,89.622,89.622,0,0,0-35.168-7.774c-.431-.02-.849-.02-1.263-.02a88.847,88.847,0,0,0-34.211,6.8A91.8,91.8,0,0,0,49.211,45.523,94.353,94.353,0,0,0,21.318,111.56a95.408,95.408,0,0,0,6.832,36.82,93.885,93.885,0,0,0,19.567,30.2,91.22,91.22,0,0,0,29.249,20.43,88.219,88.219,0,0,0,35.765,7.474,90.641,90.641,0,0,0,9.3-.491,80.8,80.8,0,0,0,9.027-1.406c2.964-.638,5.873-1.408,8.675-2.254,2.174-.732,4.124-1.426,5.952-2.159l15.544,14.57c-2.441,1.239-4.873,2.385-7.254,3.359a107.943,107.943,0,0,1-13.149,4.51,99.624,99.624,0,0,1-13.854,2.835,102.43,102.43,0,0,1-14.441.992Z" transform="translate(531.638 74)" fill="#ef5713"/>
    <path id="Path_11" data-name="Path 11" d="M216.747,212.94a9.021,9.021,0,0,1-1.795-.188,8.22,8.22,0,0,1-1.62-.47,9.1,9.1,0,0,1-1.734-.864,6.994,6.994,0,0,1-1.311-1.033l-6.77-6.328L99.178,106.5A9.914,9.914,0,0,1,96,99.54a10.3,10.3,0,0,1,.578-3.877,10.482,10.482,0,0,1,2.036-3.443,13.807,13.807,0,0,1,1.668-1.5,9.264,9.264,0,0,1,1.668-.929,11.8,11.8,0,0,1,1.95-.608,7.076,7.076,0,0,1,1.731-.2l.247.011a10.573,10.573,0,0,1,1.863.138,13.094,13.094,0,0,1,1.672.509,9.891,9.891,0,0,1,1.723.866,12.918,12.918,0,0,1,1.423,1.135l40.566,37.973,2.358-5.179c.891-1.965,1.7-4.019,2.487-6.337.709-2.141,1.309-4.32,1.85-6.685.486-2.272.865-4.619,1.136-6.956a67.221,67.221,0,0,0,.4-7.146,65.74,65.74,0,0,0-4.859-25.159,64.98,64.98,0,0,0-13.4-20.656,62.93,62.93,0,0,0-19.93-13.989,61.6,61.6,0,0,0-24.457-5.385l-.714-.011a61.79,61.79,0,0,0-23.949,4.779,62.639,62.639,0,0,0-20.311,13.65A64.756,64.756,0,0,0,39.809,71.01,66.807,66.807,0,0,0,34.5,96.348,65.549,65.549,0,0,0,52.81,142.764a62.362,62.362,0,0,0,20.228,14.118,61.64,61.64,0,0,0,24.781,5.231c.8,0,1.633,0,2.41-.038l.985-.038c.56-.045,1.11-.066,1.668-.129.786-.029,1.65-.133,2.528-.237.14-.018.291-.036.449-.054l17.82,16.7c-.475.167-.976.337-1.484.5-2.509.771-5.2,1.447-7.942,2.066a69.686,69.686,0,0,1-8.145,1.239,76.139,76.139,0,0,1-8.493.47,79.968,79.968,0,0,1-32.567-6.807A83.173,83.173,0,0,1,38.408,157.2,85.382,85.382,0,0,1,20.6,129.713a86.26,86.26,0,0,1,19.162-93.5,83.156,83.156,0,0,1,26.712-17.8A80.922,80.922,0,0,1,97.641,12.23h1.145A81.332,81.332,0,0,1,130.8,19.31a83.6,83.6,0,0,1,26.022,18.4,84.825,84.825,0,0,1,17.54,26.934A86.12,86.12,0,0,1,180.791,97.5a90.041,90.041,0,0,1-.784,11.473,80.692,80.692,0,0,1-2.206,11,81.615,81.615,0,0,1-3.546,10.514,85.431,85.431,0,0,1-4.818,9.829l-1.692,2.975,22.864,21.386L223.178,195.2a9.46,9.46,0,0,1,2.3,3.231,10.352,10.352,0,0,1,.913,3.793,10.642,10.642,0,0,1-.49,3.868,11.329,11.329,0,0,1-1.988,3.527,9.006,9.006,0,0,1-1.5,1.374,10.5,10.5,0,0,1-1.867,1.144,5.318,5.318,0,0,1-1.677.524,8.7,8.7,0,0,1-2.119.283" transform="translate(546.753 89.418)"/>
    <path id="Path_12" data-name="Path 12" d="M196.982,29.672a15.745,15.745,0,0,1,7.705,2.091,14.621,14.621,0,0,1,5.853,5.973,16.73,16.73,0,0,1,.026,16.148,14.93,14.93,0,0,1-5.79,5.989,15.331,15.331,0,0,1-15.59,0,14.971,14.971,0,0,1-5.8-5.989,16.676,16.676,0,0,1,.037-16.148,14.543,14.543,0,0,1,5.86-5.973,15.727,15.727,0,0,1,7.7-2.091m0,2.654a13.1,13.1,0,0,0-6.422,1.759,12.519,12.519,0,0,0-4.89,4.985,14.113,14.113,0,0,0-1.764,6.768,13.935,13.935,0,0,0,1.736,6.7,12.533,12.533,0,0,0,4.846,5,12.78,12.78,0,0,0,12.994,0,12.425,12.425,0,0,0,4.831-5,14,14,0,0,0,1.723-6.7,14.169,14.169,0,0,0-1.749-6.768,12.407,12.407,0,0,0-4.89-4.985,13.119,13.119,0,0,0-6.414-1.759m-6.873,22.467V37.379h5.8a13.71,13.71,0,0,1,4.295.488,4.136,4.136,0,0,1,2.123,1.689,4.576,4.576,0,0,1,.781,2.536,4.741,4.741,0,0,1-1.32,3.33,5.11,5.11,0,0,1-3.494,1.569,4.81,4.81,0,0,1,1.432.94,18.7,18.7,0,0,1,2.491,3.443l2.053,3.418h-3.321l-1.493-2.751A13.589,13.589,0,0,0,196.61,48a3.437,3.437,0,0,0-2.178-.613h-1.6v7.408Zm2.723-9.811h3.3a5.2,5.2,0,0,0,3.229-.721,2.386,2.386,0,0,0,.865-1.926,2.436,2.436,0,0,0-1.574-2.29,7.971,7.971,0,0,0-2.719-.307h-3.1Z" transform="translate(745.225 111.407)"/>
  </g>
</svg>
