<svg xmlns="http://www.w3.org/2000/svg" width="365.302" height="342.927" viewBox="0 0 365.302 342.927">
  <g id="Group_11" data-name="Group 11" transform="translate(-593 -183)">
    <g id="Group_7" data-name="Group 7" transform="translate(59.684 124)">
      <path id="Path_7" data-name="Path 7" d="M164.3,124.172a49.987,49.987,0,0,1-20.368-4.336,52.756,52.756,0,0,1-16.843-11.842,56.01,56.01,0,0,1-11.424-17.559,56.624,56.624,0,0,1-4.209-21.38v-.393l.009-.012.01-.479v-.791c.009-.105.014-.21.014-.345l.011-.282v-.142l.013-.025.023-.308V65.9A54.647,54.647,0,0,1,122.31,35.917a51.836,51.836,0,0,1,11.008-10.869,49.445,49.445,0,0,1,13.144-6.9,6.047,6.047,0,0,1,1.141.324,6.109,6.109,0,0,1,1.456.831,5.948,5.948,0,0,1,1.217,1.189,7.079,7.079,0,0,1,.945,1.593,6.676,6.676,0,0,1,.48,2.468,6.273,6.273,0,0,1-.435,2.358A5.994,5.994,0,0,1,150,28.958a5.892,5.892,0,0,1-2.011,1.42,39.064,39.064,0,0,0-10.261,6.332,40.4,40.4,0,0,0-7.845,9,42.825,42.825,0,0,0-5,11.019,44.292,44.292,0,0,0,1.56,28.959,43.367,43.367,0,0,0,8.832,13.6,41.026,41.026,0,0,0,13.059,9.2,39.243,39.243,0,0,0,15.9,3.4,37.932,37.932,0,0,0,8.522-.945,37.233,37.233,0,0,0,7.855-2.652,39.5,39.5,0,0,0,7.057-4.258,41.832,41.832,0,0,0,6.028-5.529l4.1-4.619-19.037-.09a5.548,5.548,0,0,1-2.343-.5,6.267,6.267,0,0,1-2.038-1.412,6.775,6.775,0,0,1-1.852-4.619,6.749,6.749,0,0,1,.274-1.958,6.588,6.588,0,0,1,.779-1.659,6.844,6.844,0,0,1,1.2-1.37,5.506,5.506,0,0,1,1.081-.742l38.6.2a54.258,54.258,0,0,1-5.267,14.777,52.632,52.632,0,0,1-11.136,14.459,50.407,50.407,0,0,1-15.346,9.686,48.961,48.961,0,0,1-18.332,3.519Z" transform="translate(579.069 82.691)" fill="#fff"/>
      <path id="Path_8" data-name="Path 8" d="M168.321,149.645a67.583,67.583,0,0,1-21.523-3.526,71.031,71.031,0,0,1-19.114-9.934,74.6,74.6,0,0,1-15.315-15.246,75.927,75.927,0,0,1-10.053-18.382c.859-2.119,1.621-4.27,2.276-6.413a79.672,79.672,0,0,0,1.985-7.763c.53-2.616.938-5.32,1.217-8.032.261-2.742.4-5.518.4-8.269,0-2.451-.1-4.814-.318-7.2-.193-2.248-.508-4.607-.937-7.009-.381-2.18-.878-4.416-1.505-6.792-.5-1.838-1.058-3.687-1.686-5.511a72.361,72.361,0,0,1,10.183-16.546A69.362,69.362,0,0,1,128.766,15.5a67.687,67.687,0,0,1,18.1-8.636,65.675,65.675,0,0,1,19.25-2.844c.387,0,.77,0,1.157.019a5.822,5.822,0,0,1,2.37.515,6.466,6.466,0,0,1,1.938,1.383,6.568,6.568,0,0,1,1.372,2.069A6.642,6.642,0,0,1,173,12.937a6.02,6.02,0,0,1-1.279,1.949,5.644,5.644,0,0,1-1.873,1.324,6.131,6.131,0,0,1-2.326.444h-.743c-1.332,0-2.667.038-3.967.124-1.624.123-3.173.3-4.614.534-1.32.214-2.883.485-4.475.871-1.416.358-2.873.775-4.345,1.278a55.459,55.459,0,0,0-15.18,7.825,57.621,57.621,0,0,0-12.18,12,59.643,59.643,0,0,0-8.307,15.371,60.868,60.868,0,0,0-3.587,17.874l-.011.1c-.011.146-.017.294-.017.4l-.019.325v.356l-.017.232v.529c-.009.067-.009.22-.009.387,0,.1-.006.232-.006.379v.491a62.244,62.244,0,0,0,4.63,23.611,61.29,61.29,0,0,0,12.538,19.311,57.611,57.611,0,0,0,18.544,13.033,54.961,54.961,0,0,0,22.489,4.79h.1a54.5,54.5,0,0,0,20.285-3.894,55.782,55.782,0,0,0,16.954-10.674,58.987,58.987,0,0,0,12.3-15.932,60.5,60.5,0,0,0,6.4-19.8l.448-3.156-45.344-.3h-4.608c-.735,0-1.416,0-2.041-.012,0,0-1.081-.012-1.507-.012H167.97a5.983,5.983,0,0,1-2.4-.522,6.241,6.241,0,0,1-1.992-1.405,6.526,6.526,0,0,1-1.362-2.066,6.879,6.879,0,0,1-.5-2.573,7,7,0,0,1,.467-2.55,6.282,6.282,0,0,1,1.287-1.952,5.826,5.826,0,0,1,4.253-1.824l69.138.559.1,6.4a74.39,74.39,0,0,1-4.968,28.128,71.453,71.453,0,0,1-14.478,23.139,68.373,68.373,0,0,1-21.889,15.766,66.6,66.6,0,0,1-27.159,5.858Z" transform="translate(575.122 75.926)" fill="#ef5713"/>
      <path id="Path_9" data-name="Path 9" d="M112.539,127.006a4.7,4.7,0,0,1-1.091-.109,5.28,5.28,0,0,1-1.193-.319,4.521,4.521,0,0,1-.981-.5,7.677,7.677,0,0,1-1.094-.822L91.359,109.488,77.115,96.149,61.257,81.279l-8.564-8.009a6.837,6.837,0,0,1-1.525-2.156,6.543,6.543,0,0,1-.567-2.439,7.155,7.155,0,0,1,.371-2.562,7,7,0,0,1,1.32-2.253,5.769,5.769,0,0,1,1.011-.9,5.107,5.107,0,0,1,1.193-.7A8.957,8.957,0,0,1,55.9,61.8a7.046,7.046,0,0,1,1.236-.1c.137,0,.262.006.387.012l.182,0c.152.019.265.044.384.062l.1.019c.195.031.337.061.471.093l.08.016,59.726,55.85a7.587,7.587,0,0,1,.4,1.426,7.011,7.011,0,0,1,.029,1.939,6.779,6.779,0,0,1-.511,1.93,7.422,7.422,0,0,1-1.111,1.757,6.877,6.877,0,0,1-1.021.933,6.452,6.452,0,0,1-1.186.713,6.2,6.2,0,0,1-1.219.417,6.659,6.659,0,0,1-1.306.135" transform="translate(552.774 103.554)" fill="#ef5713"/>
      <path id="Path_10" data-name="Path 10" d="M74.034,148.144a70.1,70.1,0,0,1-28.258-5.872,71.966,71.966,0,0,1-23.2-16.177A74.094,74.094,0,0,1,7.057,102.123a75.8,75.8,0,0,1,.832-58.092,73.775,73.775,0,0,1,16-23.3A71.9,71.9,0,0,1,47.158,5.287,70.667,70.667,0,0,1,74.031,0c.392,0,.782.013,1.18.013A70.735,70.735,0,0,1,97.162,3.9a72,72,0,0,1,19.082,10.079,73.948,73.948,0,0,1,15.221,15.183,74.971,74.971,0,0,1,10.362,19.2c.723,2.008,1.365,4.066,1.915,6.093.586,2.223,1.047,4.294,1.4,6.32.4,2.235.687,4.428.866,6.524.2,2.229.3,4.428.3,6.7,0,2.556-.127,5.147-.368,7.7-.259,2.531-.643,5.054-1.13,7.467a73.4,73.4,0,0,1-1.85,7.212,70.155,70.155,0,0,1-2.509,6.928c-.4.927-.821,1.88-1.27,2.832-.445.982-.909,1.9-1.383,2.825-.481.89-.931,1.713-1.406,2.531l-9.376-8.77c.891-1.7,1.69-3.409,2.386-5.1a59.175,59.175,0,0,0,2.558-7.567,58.442,58.442,0,0,0,1.584-7.936,63.172,63.172,0,0,0,.566-8.225,62,62,0,0,0-4.627-23.67,60.962,60.962,0,0,0-12.617-19.373A59.673,59.673,0,0,0,98.183,17.64a58.633,58.633,0,0,0-23.008-5.086c-.282-.013-.556-.013-.826-.013a58.126,58.126,0,0,0-22.382,4.447A60.06,60.06,0,0,0,32.776,29.783a61.728,61.728,0,0,0-18.249,43.2A62.418,62.418,0,0,0,19,97.074a61.422,61.422,0,0,0,12.8,19.758A59.679,59.679,0,0,0,50.933,130.2a57.715,57.715,0,0,0,23.4,4.89,59.3,59.3,0,0,0,6.083-.321,52.859,52.859,0,0,0,5.906-.92c1.939-.417,3.842-.921,5.675-1.475,1.422-.479,2.7-.933,3.894-1.412l10.169,9.532c-1.6.81-3.188,1.56-4.746,2.2a70.619,70.619,0,0,1-8.6,2.951,65.176,65.176,0,0,1-9.064,1.855,67.012,67.012,0,0,1-9.447.649Z" transform="translate(531.638 74)" fill="#ef5713"/>
      <path id="Path_11" data-name="Path 11" d="M146.778,143.54a5.9,5.9,0,0,1-1.174-.123,5.378,5.378,0,0,1-1.06-.308,5.951,5.951,0,0,1-1.134-.565,4.575,4.575,0,0,1-.858-.676l-4.429-4.14L69.861,73.9a6.486,6.486,0,0,1-2.079-4.552,6.736,6.736,0,0,1,.378-2.536,6.857,6.857,0,0,1,1.332-2.253,9.034,9.034,0,0,1,1.091-.979,6.061,6.061,0,0,1,1.091-.608,7.723,7.723,0,0,1,1.276-.4,4.629,4.629,0,0,1,1.133-.13l.162.007a6.917,6.917,0,0,1,1.219.09,8.566,8.566,0,0,1,1.094.333,6.471,6.471,0,0,1,1.127.566,8.451,8.451,0,0,1,.931.742l26.539,24.843L106.7,85.64c.583-1.285,1.113-2.63,1.627-4.146.464-1.4.856-2.826,1.21-4.373.318-1.486.566-3.022.743-4.551a43.976,43.976,0,0,0,.259-4.675,43.009,43.009,0,0,0-3.179-16.46,42.512,42.512,0,0,0-8.766-13.514A41.17,41.17,0,0,0,85.552,28.77a40.3,40.3,0,0,0-16-3.523l-.467-.007a40.425,40.425,0,0,0-15.668,3.127A40.98,40.98,0,0,0,40.128,37.3,42.365,42.365,0,0,0,31.02,50.685a43.707,43.707,0,0,0-3.473,16.577A42.884,42.884,0,0,0,39.525,97.629a40.8,40.8,0,0,0,13.234,9.236,40.326,40.326,0,0,0,16.212,3.422c.523,0,1.068,0,1.577-.025l.644-.025c.367-.03.726-.043,1.091-.084.514-.019,1.08-.087,1.654-.155l.294-.035L85.89,120.889c-.311.109-.639.22-.971.33-1.641.5-3.4.947-5.2,1.352a45.59,45.59,0,0,1-5.329.811,49.812,49.812,0,0,1-5.556.308,52.317,52.317,0,0,1-21.306-4.453A54.414,54.414,0,0,1,30.1,107.075a55.859,55.859,0,0,1-11.65-17.985A56.434,56.434,0,0,1,30.99,27.924,54.4,54.4,0,0,1,48.466,16.278a52.941,52.941,0,0,1,20.39-4.048H69.6A53.209,53.209,0,0,1,90.55,16.862,54.69,54.69,0,0,1,107.575,28.9,55.5,55.5,0,0,1,119.05,46.521a56.342,56.342,0,0,1,4.2,21.5,58.907,58.907,0,0,1-.513,7.506,52.79,52.79,0,0,1-1.444,7.2,53.4,53.4,0,0,1-2.32,6.879,55.89,55.89,0,0,1-3.152,6.431l-1.107,1.946,14.958,13.991,21.308,19.962a6.189,6.189,0,0,1,1.505,2.113,6.772,6.772,0,0,1,.6,2.482,6.962,6.962,0,0,1-.321,2.531,7.411,7.411,0,0,1-1.3,2.307,5.892,5.892,0,0,1-.984.9,6.87,6.87,0,0,1-1.222.748,3.479,3.479,0,0,1-1.1.343,5.69,5.69,0,0,1-1.386.185" transform="translate(537.131 79.858)" fill="#fff"/>
      <path id="Path_12" data-name="Path 12" d="M191.566,29.672a10.3,10.3,0,0,1,5.041,1.368,9.566,9.566,0,0,1,3.829,3.908,10.945,10.945,0,0,1,.017,10.564,9.768,9.768,0,0,1-3.788,3.918,10.03,10.03,0,0,1-10.2,0,9.8,9.8,0,0,1-3.795-3.918,10.91,10.91,0,0,1,.024-10.564,9.514,9.514,0,0,1,3.834-3.908,10.289,10.289,0,0,1,5.037-1.368m0,1.736a8.571,8.571,0,0,0-4.2,1.151,8.19,8.19,0,0,0-3.2,3.261,9.233,9.233,0,0,0-1.154,4.428,9.117,9.117,0,0,0,1.136,4.385,8.2,8.2,0,0,0,3.171,3.273,8.361,8.361,0,0,0,8.5,0,8.128,8.128,0,0,0,3.161-3.273,9.155,9.155,0,0,0,1.127-4.385,9.27,9.27,0,0,0-1.144-4.428,8.117,8.117,0,0,0-3.2-3.261,8.583,8.583,0,0,0-4.2-1.151m-4.5,14.7V34.714h3.792a8.969,8.969,0,0,1,2.81.319,2.706,2.706,0,0,1,1.389,1.1,2.994,2.994,0,0,1,.511,1.659,3.1,3.1,0,0,1-.864,2.179A3.343,3.343,0,0,1,192.423,41a3.147,3.147,0,0,1,.937.615,12.235,12.235,0,0,1,1.63,2.253l1.343,2.236H194.16l-.977-1.8a8.89,8.89,0,0,0-1.86-2.646,2.248,2.248,0,0,0-1.425-.4h-1.047v4.847Zm1.781-6.419h2.158a3.4,3.4,0,0,0,2.112-.472,1.561,1.561,0,0,0,.566-1.26,1.594,1.594,0,0,0-1.03-1.5,5.215,5.215,0,0,0-1.779-.2h-2.028Z" transform="translate(609.257 88.213)" fill="#fff"/>
    </g>
    <g id="Group_8" data-name="Group 8" transform="translate(122.526 121.961)">
      <path id="Path_13" data-name="Path 13" d="M284.737,58.664v12.03H251.866a42.058,42.058,0,0,1-15.942-2.75,31.183,31.183,0,0,1-11.152-7.461,29.593,29.593,0,0,1-6.548-11.059A42.261,42.261,0,0,1,216.1,35.9a34.524,34.524,0,0,1,2.664-13.517,35.581,35.581,0,0,1,7.225-11.058,34.331,34.331,0,0,1,10.656-7.455A31.3,31.3,0,0,1,249.7,1.118a31.618,31.618,0,0,1,13.1,2.751,34.277,34.277,0,0,1,10.7,7.455,35.723,35.723,0,0,1,7.223,11.058A34.524,34.524,0,0,1,283.383,35.9a31.439,31.439,0,0,1-.675,6.35,25.87,25.87,0,0,1-2.216,6.337,24.913,24.913,0,0,1-3.929,5.695,20.319,20.319,0,0,1-5.913,4.384ZM228.745,35.9a21.831,21.831,0,0,0,1.667,8.49,23.077,23.077,0,0,0,4.505,7.039,21.33,21.33,0,0,0,6.669,4.815,19.782,19.782,0,0,0,16.312,0,21.321,21.321,0,0,0,6.667-4.815,23.064,23.064,0,0,0,4.508-7.039,21.9,21.9,0,0,0,1.666-8.49,22.236,22.236,0,0,0-1.666-8.528,22.627,22.627,0,0,0-4.508-7.048,21.834,21.834,0,0,0-6.667-4.75,19.694,19.694,0,0,0-16.312,0,21.843,21.843,0,0,0-6.669,4.75,22.641,22.641,0,0,0-4.505,7.048,22.17,22.17,0,0,0-1.667,8.528" transform="translate(254.372 263.536)" fill="#ef5713"/>
      <path id="Path_14" data-name="Path 14" d="M310.271,71.575a31.711,31.711,0,0,1-11.651-2.05,24.916,24.916,0,0,1-14.677-14.838,32.849,32.849,0,0,1-2.029-11.837V2.181h12.641v40.6a19.3,19.3,0,0,0,1.629,8.471,15.2,15.2,0,0,0,4.018,5.309,13.722,13.722,0,0,0,5.147,2.7,16.692,16.692,0,0,0,9.843,0,13.8,13.8,0,0,0,5.149-2.7,15.286,15.286,0,0,0,4.018-5.309,19.338,19.338,0,0,0,1.627-8.471V2.181h12.642V42.85a33.535,33.535,0,0,1-1.988,11.837,24.992,24.992,0,0,1-5.689,9.057,25.377,25.377,0,0,1-8.938,5.781,31.987,31.987,0,0,1-11.742,2.05" transform="translate(266.587 263.774)" fill="#ef5713"/>
      <path id="Path_15" data-name="Path 15" d="M332.72,70.365,366.5,2.181h1.266l33.777,68.184H387.812l-5.148-10.73H351.5l-5.057,10.73Zm24.929-22.11h18.874l-9.391-20.609Z" transform="translate(276.017 263.774)" fill="#ef5713"/>
      <path id="Path_16" data-name="Path 16" d="M423.373,70.381H397.316V2.106h26.057q14.154,0,23.263,8.577a29.288,29.288,0,0,1,7.348,11.061,40.231,40.231,0,0,1,2.482,14.5,40.5,40.5,0,0,1-2.482,14.593,29.506,29.506,0,0,1-17.672,17.4,37.673,37.673,0,0,1-12.94,2.146M409.957,58.812h13.457a32,32,0,0,0,7.134-.834,15.647,15.647,0,0,0,6.549-3.321,18.156,18.156,0,0,0,4.83-6.844,29.273,29.273,0,0,0,1.893-11.482,29.555,29.555,0,0,0-1.893-11.512,17.46,17.46,0,0,0-4.875-6.855,16.213,16.213,0,0,0-6.593-3.274,31.369,31.369,0,0,0-7.045-.835H409.957Z" transform="translate(288.007 263.757)" fill="#ef5713"/>
      <path id="Path_17" data-name="Path 17" d="M469.828,70.381H457.185V2.106h30.034A23.944,23.944,0,0,1,496.5,3.84a20.6,20.6,0,0,1,7.191,4.84,22.3,22.3,0,0,1,4.658,7.464,26.118,26.118,0,0,1,1.674,9.469,24.26,24.26,0,0,1-3.756,13.516,21.153,21.153,0,0,1-9.994,8.314q8.328,11.371,16.457,22.938H497.644q-3.964-5.308-7.739-10.729t-7.565-11H469.828Zm0-33.3H487.2a9.964,9.964,0,0,0,3.555-.7,9.169,9.169,0,0,0,3.286-2.135,11.684,11.684,0,0,0,2.383-3.6,12.376,12.376,0,0,0,.946-5.034,20.8,20.8,0,0,0-.36-3.555,11.962,11.962,0,0,0-1.438-3.916,9.584,9.584,0,0,0-3.064-3.163,9.478,9.478,0,0,0-5.308-1.311H469.828Z" transform="translate(299.12 263.757)" fill="#ef5713"/>
      <rect id="Rectangle_3" data-name="Rectangle 3" width="12.641" height="68.184" transform="translate(823.134 265.954)" fill="#ef5713"/>
    </g>
    <g id="Group_9" data-name="Group 9" transform="translate(117.029 113.033)">
      <path id="Path_18" data-name="Path 18" d="M267.7,90.314c-.044.916-.062,1.766-.062,2.552-.044.717-.064,1.392-.064,2.067a13.913,13.913,0,0,1-.064,1.545,22.306,22.306,0,0,1-2.384,8.421,22.9,22.9,0,0,1-5.151,6.66,23.969,23.969,0,0,1-15.868,5.944,22.656,22.656,0,0,1-9.349-1.973,24.625,24.625,0,0,1-7.682-5.352,25.487,25.487,0,0,1-5.216-7.908,25.336,25.336,0,0,1,0-19.346,25.352,25.352,0,0,1,5.216-7.944,24.8,24.8,0,0,1,7.682-5.357,22.474,22.474,0,0,1,9.349-1.965,22.757,22.757,0,0,1,11.543,3.014,24.36,24.36,0,0,1,8.49,8.077l-7.632,4.793a17.864,17.864,0,0,0-5.31-5.182,12.871,12.871,0,0,0-7.091-2.1,13.43,13.43,0,0,0-5.946,1.345,16.176,16.176,0,0,0-4.834,3.57,17.1,17.1,0,0,0-3.276,5.223,16.633,16.633,0,0,0,0,12.441,17.318,17.318,0,0,0,3.276,5.207,16.435,16.435,0,0,0,4.834,3.571,13.51,13.51,0,0,0,5.946,1.34,14.415,14.415,0,0,0,4.643-.746,14.758,14.758,0,0,0,7.282-5.422,13.235,13.235,0,0,0,2-4.194H240.863V90.314Z" transform="translate(256.03 295.391)" fill="#fff"/>
      <path id="Path_19" data-name="Path 19" d="M300.933,116.423h-8.9V68.347h21.151a17,17,0,0,1,6.53,1.212,14.625,14.625,0,0,1,5.064,3.417,15.672,15.672,0,0,1,3.281,5.259,18.359,18.359,0,0,1,1.177,6.656,17.067,17.067,0,0,1-2.643,9.524,14.859,14.859,0,0,1-7.043,5.854q5.874,8.01,11.595,16.154H320.523q-2.795-3.744-5.453-7.551t-5.324-7.744h-8.813Zm0-23.449h12.235a7.058,7.058,0,0,0,2.5-.491,6.389,6.389,0,0,0,2.316-1.515,8.33,8.33,0,0,0,1.682-2.526,8.781,8.781,0,0,0,.664-3.55,14.8,14.8,0,0,0-.254-2.486,8.267,8.267,0,0,0-1.016-2.757,6.642,6.642,0,0,0-2.153-2.242,6.75,6.75,0,0,0-3.74-.915H300.933Z" transform="translate(269.925 295.551)" fill="#fff"/>
      <path id="Path_20" data-name="Path 20" d="M378.355,117.518a22.617,22.617,0,0,1-9.346-1.973,24.379,24.379,0,0,1-7.663-5.352,25.381,25.381,0,0,1-5.184-7.908,25.658,25.658,0,0,1,0-19.409,25.23,25.23,0,0,1,5.184-7.949,24.667,24.667,0,0,1,7.663-5.361,23.27,23.27,0,0,1,18.762,0,24.689,24.689,0,0,1,7.662,5.361,25.294,25.294,0,0,1,5.185,7.949,25.628,25.628,0,0,1,0,19.409,25.446,25.446,0,0,1-5.185,7.908,24.4,24.4,0,0,1-7.662,5.352,22.825,22.825,0,0,1-9.416,1.973m.035-41.313a13.3,13.3,0,0,0-5.934,1.346,16.121,16.121,0,0,0-4.823,3.585,16.917,16.917,0,0,0-3.271,5.218,16.694,16.694,0,0,0,0,12.441,17.489,17.489,0,0,0,3.271,5.228,16.041,16.041,0,0,0,4.823,3.612,13.806,13.806,0,0,0,11.868,0,16.051,16.051,0,0,0,4.822-3.612,17.558,17.558,0,0,0,3.269-5.228,16.648,16.648,0,0,0,0-12.441,16.982,16.982,0,0,0-3.269-5.218,16.131,16.131,0,0,0-4.822-3.585,13.311,13.311,0,0,0-5.934-1.346" transform="translate(281.918 295.376)" fill="#fff"/>
      <path id="Path_21" data-name="Path 21" d="M447.111,117.269a22.37,22.37,0,0,1-8.2-1.452,17.569,17.569,0,0,1-10.332-10.436,23.2,23.2,0,0,1-1.431-8.349V68.4h8.9V96.991a13.554,13.554,0,0,0,1.146,5.955,10.715,10.715,0,0,0,2.83,3.745,9.434,9.434,0,0,0,3.622,1.9,11.77,11.77,0,0,0,6.935,0,9.5,9.5,0,0,0,3.622-1.9,10.743,10.743,0,0,0,2.83-3.745,13.553,13.553,0,0,0,1.146-5.955V68.4h8.9V97.031a23.707,23.707,0,0,1-1.4,8.349,17.412,17.412,0,0,1-10.3,10.436,22.553,22.553,0,0,1-8.27,1.452" transform="translate(295.966 295.563)" fill="#fff"/>
      <path id="Path_22" data-name="Path 22" d="M515.7,68.347a15.719,15.719,0,0,1,6.455,1.344,16.55,16.55,0,0,1,5.246,3.647,17.344,17.344,0,0,1,4.834,12.078,18.344,18.344,0,0,1-1.146,6.569,14.975,14.975,0,0,1-3.371,5.285,15.234,15.234,0,0,1-5.629,3.55,22.1,22.1,0,0,1-7.854,1.288H503.87v14.314h-8.9V68.347Zm0,25.485a7.986,7.986,0,0,0,3.434-.695,6.416,6.416,0,0,0,2.383-1.874,7.967,7.967,0,0,0,1.369-2.692,11.178,11.178,0,0,0,.442-3.156,9.484,9.484,0,0,0-.573-3.237,8.716,8.716,0,0,0-1.652-2.865,8.344,8.344,0,0,0-2.672-2.035,8.191,8.191,0,0,0-3.688-.788H503.87V93.832Z" transform="translate(309.039 295.551)" fill="#fff"/>
    </g>
    <text id="S_I_N_C_E" data-name="S
I
N
C
E" transform="translate(909 216)" fill="#fff" font-size="27" font-family="SegoeUI, Segoe UI"><tspan x="-7.172" y="0">S</tspan><tspan x="-3.593" y="32">I</tspan><tspan x="-10.099" y="64">N</tspan><tspan x="-8.358" y="96">C</tspan><tspan x="-6.829" y="128">E</tspan></text>
    <text id="_1_9_5_7" data-name="1
9
5
7" transform="translate(933 221)" fill="#fff" font-size="35" font-family="SegoeUI, Segoe UI"><tspan x="0" y="0">1</tspan><tspan x="0" y="41">9</tspan><tspan x="0" y="82">5</tspan><tspan x="0" y="123">7</tspan></text>
  </g>
</svg>
