<svg id="notification" xmlns="http://www.w3.org/2000/svg" width="51.551" height="65.283" viewBox="0 0 51.551 65.283">
  <g id="Group_320" data-name="Group 320" transform="translate(0 0)">
    <g id="Group_319" data-name="Group 319">
      <path id="Path_110" data-name="Path 110" d="M103.452,48.2A6.67,6.67,0,0,1,101.28,43.3V30.6a1.275,1.275,0,0,0-2.55,0V43.3a9.226,9.226,0,0,0,3,6.791A3.315,3.315,0,0,1,99.5,55.848H59.713a3.315,3.315,0,0,1-2.236-5.761,9.226,9.226,0,0,0,3-6.791V28.561A19.13,19.13,0,0,1,87.949,11.349a9.444,9.444,0,1,0,1.675-2.011,21.621,21.621,0,0,0-6.045-2.084,4.718,4.718,0,1,0-7.95,0,21.711,21.711,0,0,0-17.7,21.309V43.3A6.67,6.67,0,0,1,55.756,48.2,5.865,5.865,0,0,0,59.713,58.4H71.544a8.16,8.16,0,0,0,16.12,0H99.5A5.865,5.865,0,0,0,103.452,48.2ZM95.964,9.435a6.885,6.885,0,1,1-6.885,6.885A6.893,6.893,0,0,1,95.964,9.435ZM79.6,2.55a2.168,2.168,0,1,1-2.168,2.167A2.17,2.17,0,0,1,79.6,2.55Zm0,60.183A5.619,5.619,0,0,1,74.142,58.4H85.067A5.619,5.619,0,0,1,79.6,62.733Z" transform="translate(-53.848 0)" fill="#fc8035"/>
    </g>
  </g>
  <g id="Group_322" data-name="Group 322" transform="translate(10.2 27.26)">
    <g id="Group_321" data-name="Group 321" transform="translate(0)">
      <path id="Path_111" data-name="Path 111" d="M135.123,213.791a1.275,1.275,0,0,0-1.275,1.275v.027a1.275,1.275,0,0,0,2.55,0v-.027A1.275,1.275,0,0,0,135.123,213.791Z" transform="translate(-133.848 -213.791)" fill="#fc8035"/>
    </g>
  </g>
  <g id="Group_324" data-name="Group 324" transform="translate(11.33 13.005)">
    <g id="Group_323" data-name="Group 323" transform="translate(0)">
      <path id="Path_112" data-name="Path 112" d="M157.131,102a15.537,15.537,0,0,0-14.325,9.482,1.275,1.275,0,1,0,2.347,1,12.991,12.991,0,0,1,11.977-7.928,1.275,1.275,0,1,0,0-2.55Z" transform="translate(-142.704 -101.999)" fill="#fc8035"/>
    </g>
  </g>
  <g id="Group_326" data-name="Group 326" transform="translate(39.336 12.092)">
    <g id="Group_325" data-name="Group 325">
      <path id="Path_113" data-name="Path 113" d="M365.578,94.93a1.276,1.276,0,0,0-1.389.276l-1.466,1.466a1.275,1.275,0,0,0,1.093,2.162v2.309a1.275,1.275,0,1,0,2.55,0V96.108A1.275,1.275,0,0,0,365.578,94.93Z" transform="translate(-362.348 -94.833)" fill="#fc8035"/>
    </g>
  </g>
</svg>
