<svg id="reports" xmlns="http://www.w3.org/2000/svg" width="56.01" height="73.054" viewBox="0 0 56.01 73.054">
  <g id="Group_704" data-name="Group 704" transform="translate(7.305 17.046)">
    <g id="Group_703" data-name="Group 703">
      <path id="Path_370" data-name="Path 370" d="M52.866,112a4.866,4.866,0,1,0,4.866,4.866A4.866,4.866,0,0,0,52.866,112Zm0,7.305A2.435,2.435,0,1,1,55.3,116.87,2.435,2.435,0,0,1,52.866,119.305Z" transform="translate(-48 -112)" fill="#fc8035"/>
    </g>
  </g>
  <g id="Group_706" data-name="Group 706" transform="translate(7.305 29.221)">
    <g id="Group_705" data-name="Group 705">
      <path id="Path_371" data-name="Path 371" d="M52.866,192a4.866,4.866,0,1,0,4.866,4.866A4.866,4.866,0,0,0,52.866,192Zm0,7.305A2.435,2.435,0,1,1,55.3,196.87,2.435,2.435,0,0,1,52.866,199.305Z" transform="translate(-48 -192)" fill="#fc8035"/>
    </g>
  </g>
  <g id="Group_708" data-name="Group 708" transform="translate(29.221 18.264)">
    <g id="Group_707" data-name="Group 707">
      <path id="Path_372" data-name="Path 372" d="M210.264,120H193.218a1.218,1.218,0,0,0,0,2.435h17.046a1.218,1.218,0,0,0,0-2.435Z" transform="translate(-192 -120)" fill="#fc8035"/>
    </g>
  </g>
  <g id="Group_710" data-name="Group 710" transform="translate(19.485 18.264)">
    <g id="Group_709" data-name="Group 709" transform="translate(0)">
      <path id="Path_373" data-name="Path 373" d="M134.087,120h-4.866a1.218,1.218,0,0,0,0,2.435h4.866a1.218,1.218,0,0,0,0-2.435Z" transform="translate(-128.004 -120)" fill="#fc8035"/>
    </g>
  </g>
  <g id="Group_712" data-name="Group 712" transform="translate(36.528 23.134)">
    <g id="Group_711" data-name="Group 711" transform="translate(0)">
      <path id="Path_374" data-name="Path 374" d="M250.959,152h-9.74a1.218,1.218,0,1,0,0,2.435h9.74a1.218,1.218,0,0,0,0-2.435Z" transform="translate(-240.001 -152)" fill="#fc8035"/>
    </g>
  </g>
  <g id="Group_714" data-name="Group 714" transform="translate(19.481 23.134)">
    <g id="Group_713" data-name="Group 713" transform="translate(0)">
      <path id="Path_375" data-name="Path 375" d="M141.394,152H129.217a1.218,1.218,0,1,0,0,2.435h12.176a1.218,1.218,0,0,0,0-2.435Z" transform="translate(-128 -152)" fill="#fc8035"/>
    </g>
  </g>
  <g id="Group_716" data-name="Group 716" transform="translate(41.401 30.439)">
    <g id="Group_715" data-name="Group 715" transform="translate(0)">
      <path id="Path_376" data-name="Path 376" d="M278.087,200h-4.866a1.218,1.218,0,1,0,0,2.435h4.866a1.218,1.218,0,1,0,0-2.435Z" transform="translate(-272.004 -200)" fill="#fc8035"/>
    </g>
  </g>
  <g id="Group_716-2" data-name="Group 716" transform="translate(41.401 42.615)">
    <g id="Group_715-2" data-name="Group 715" transform="translate(0)">
      <path id="Path_376-2" data-name="Path 376" d="M278.087,200h-4.866a1.218,1.218,0,1,0,0,2.435h4.866a1.218,1.218,0,1,0,0-2.435Z" transform="translate(-272.004 -200)" fill="#fc8035"/>
    </g>
  </g>
  <g id="Group_716-3" data-name="Group 716" transform="translate(41.401 54.791)">
    <g id="Group_715-3" data-name="Group 715" transform="translate(0)">
      <path id="Path_376-3" data-name="Path 376" d="M278.087,200h-4.866a1.218,1.218,0,1,0,0,2.435h4.866a1.218,1.218,0,1,0,0-2.435Z" transform="translate(-272.004 -200)" fill="#fc8035"/>
    </g>
  </g>
  <g id="Group_718" data-name="Group 718" transform="translate(19.481 30.439)">
    <g id="Group_717" data-name="Group 717" transform="translate(0)">
      <path id="Path_377" data-name="Path 377" d="M146.264,200H129.217a1.218,1.218,0,1,0,0,2.435h17.046a1.218,1.218,0,0,0,0-2.435Z" transform="translate(-128 -200)" fill="#fc8035"/>
    </g>
  </g>
  <g id="Group_718-2" data-name="Group 718" transform="translate(19.481 42.615)">
    <g id="Group_717-2" data-name="Group 717" transform="translate(0)">
      <path id="Path_377-2" data-name="Path 377" d="M146.264,200H129.217a1.218,1.218,0,1,0,0,2.435h17.046a1.218,1.218,0,0,0,0-2.435Z" transform="translate(-128 -200)" fill="#fc8035"/>
    </g>
  </g>
  <g id="Group_718-3" data-name="Group 718" transform="translate(19.481 54.791)">
    <g id="Group_717-3" data-name="Group 717" transform="translate(0)">
      <path id="Path_377-3" data-name="Path 377" d="M146.264,200H129.217a1.218,1.218,0,1,0,0,2.435h17.046a1.218,1.218,0,0,0,0-2.435Z" transform="translate(-128 -200)" fill="#fc8035"/>
    </g>
  </g>
  <g id="Group_720" data-name="Group 720" transform="translate(32.875 35.31)">
    <g id="Group_719" data-name="Group 719" transform="translate(0)">
      <path id="Path_378" data-name="Path 378" d="M230.611,232H217.218a1.218,1.218,0,1,0,0,2.435h13.394a1.218,1.218,0,0,0,0-2.435Z" transform="translate(-216 -232)" fill="#fc8035"/>
    </g>
  </g>
  <g id="Group_720-2" data-name="Group 720" transform="translate(32.875 47.486)">
    <g id="Group_719-2" data-name="Group 719" transform="translate(0)">
      <path id="Path_378-2" data-name="Path 378" d="M230.611,232H217.218a1.218,1.218,0,1,0,0,2.435h13.394a1.218,1.218,0,0,0,0-2.435Z" transform="translate(-216 -232)" fill="#fc8035"/>
    </g>
  </g>
  <g id="Group_720-3" data-name="Group 720" transform="translate(32.875 59.662)">
    <g id="Group_719-3" data-name="Group 719" transform="translate(0)">
      <path id="Path_378-3" data-name="Path 378" d="M230.611,232H217.218a1.218,1.218,0,1,0,0,2.435h13.394a1.218,1.218,0,0,0,0-2.435Z" transform="translate(-216 -232)" fill="#fc8035"/>
    </g>
  </g>
  <g id="Group_722" data-name="Group 722" transform="translate(19.481 35.31)">
    <g id="Group_721" data-name="Group 721" transform="translate(0)">
      <path id="Path_379" data-name="Path 379" d="M137.74,232h-8.523a1.218,1.218,0,0,0,0,2.435h8.523a1.218,1.218,0,0,0,0-2.435Z" transform="translate(-128 -232)" fill="#fc8035"/>
    </g>
  </g>
  <g id="Group_722-2" data-name="Group 722" transform="translate(19.481 47.486)">
    <g id="Group_721-2" data-name="Group 721" transform="translate(0)">
      <path id="Path_379-2" data-name="Path 379" d="M137.74,232h-8.523a1.218,1.218,0,0,0,0,2.435h8.523a1.218,1.218,0,0,0,0-2.435Z" transform="translate(-128 -232)" fill="#fc8035"/>
    </g>
  </g>
  <g id="Group_722-3" data-name="Group 722" transform="translate(19.481 59.662)">
    <g id="Group_721-3" data-name="Group 721" transform="translate(0)">
      <path id="Path_379-3" data-name="Path 379" d="M137.74,232h-8.523a1.218,1.218,0,0,0,0,2.435h8.523a1.218,1.218,0,0,0,0-2.435Z" transform="translate(-128 -232)" fill="#fc8035"/>
    </g>
  </g>
  <g id="Group_702" data-name="Group 702" transform="translate(0)">
    <g id="Group_701" data-name="Group 701">
      <path id="Path_369" data-name="Path 369" d="M54.791,4.866H43.832V1.218A1.218,1.218,0,0,0,42.615,0H13.394a1.218,1.218,0,0,0-1.218,1.218V4.866H1.218A1.218,1.218,0,0,0,0,6.088V71.836a1.218,1.218,0,0,0,1.218,1.217H54.791a1.217,1.217,0,0,0,1.219-1.217V6.088a1.218,1.218,0,0,0-1.219-1.222ZM14.611,2.435H41.4V4.866H14.611Zm0,4.866H41.4v4.866H31.448a3.653,3.653,0,0,0-6.889,0H14.61ZM53.572,70.619H2.435V7.305h9.74v6.088a1.218,1.218,0,0,0,1.218,1.218H25.572a1.218,1.218,0,0,0,1.218-1.218,1.218,1.218,0,0,1,2.435,0,1.218,1.218,0,0,0,1.213,1.219H42.615a1.218,1.218,0,0,0,1.218-1.218V7.305h9.74Z" transform="translate(0 0)" fill="#fc8035"/>
    </g>
  </g>
  <g id="Group_728" data-name="Group 728" transform="translate(7.305 41.397)">
    <g id="Group_727" data-name="Group 727">
      <path id="Path_382" data-name="Path 382" d="M260.866,272a4.866,4.866,0,1,0,4.866,4.866A4.866,4.866,0,0,0,260.866,272Zm0,7.305a2.435,2.435,0,1,1,2.435-2.435,2.435,2.435,0,0,1-2.435,2.435Z" transform="translate(-256 -272)" fill="#fc8035"/>
    </g>
  </g>
  <g id="Group_730" data-name="Group 730" transform="translate(7.305 53.573)">
    <g id="Group_729" data-name="Group 729">
      <path id="Path_383" data-name="Path 383" d="M260.866,384a4.866,4.866,0,1,0,4.866,4.866A4.866,4.866,0,0,0,260.866,384Zm0,7.305a2.435,2.435,0,1,1,2.435-2.435A2.435,2.435,0,0,1,260.866,391.305Z" transform="translate(-256 -384)" fill="#fc8035"/>
    </g>
  </g>
</svg>
