<svg xmlns="http://www.w3.org/2000/svg" width="39.666" height="40.597" viewBox="0 0 39.666 40.597">
  <g id="magnifying-glass" transform="translate(-0.001 0)">
    <path id="Path_496" data-name="Path 496" d="M26.49,4.645a15.291,15.291,0,0,0-21.952,0,16.174,16.174,0,0,0,0,22.467,15.275,15.275,0,0,0,19.829,1.8,3.369,3.369,0,0,0,.887,1.684l8.813,9.019a3.224,3.224,0,0,0,4.637,0,3.407,3.407,0,0,0,0-4.746l-8.813-9.022a3.256,3.256,0,0,0-1.644-.9A16.182,16.182,0,0,0,26.49,4.645Zm-2.782,19.62a11.414,11.414,0,0,1-16.387,0,12.075,12.075,0,0,1,0-16.771,11.416,11.416,0,0,1,16.387,0A12.07,12.07,0,0,1,23.708,24.265Z" transform="translate(0 0)" fill="#fc8035"/>
  </g>
</svg>
