<svg xmlns="http://www.w3.org/2000/svg" width="119.506" height="119.501" viewBox="0 0 119.506 119.501">
  <g id="profile-user" transform="translate(0 -0.001)">
    <path id="Path_503" data-name="Path 503" d="M59.753,0a59.75,59.75,0,1,0,59.753,59.75A59.753,59.753,0,0,0,59.753,0Zm0,17.866A19.764,19.764,0,1,1,39.992,37.631,19.765,19.765,0,0,1,59.753,17.867ZM59.74,103.88A43.852,43.852,0,0,1,31.184,93.35a8.422,8.422,0,0,1-2.955-6.4A19.932,19.932,0,0,1,48.257,67.022h23a19.9,19.9,0,0,1,20,19.926,8.4,8.4,0,0,1-2.953,6.4A43.837,43.837,0,0,1,59.74,103.88Z" fill="#fd7d31"/>
  </g>
</svg>
