<svg xmlns="http://www.w3.org/2000/svg" width="49.904" height="59.816" viewBox="0 0 49.904 59.816">
  <g id="Group_10" data-name="Group 10" transform="translate(0)">
    <path id="Path_494" data-name="Path 494" d="M101.439,28.814a13.94,13.94,0,0,0,10.187-4.221,13.939,13.939,0,0,0,4.22-10.186A13.942,13.942,0,0,0,111.625,4.22a14.4,14.4,0,0,0-20.373,0,13.94,13.94,0,0,0-4.221,10.186,13.94,13.94,0,0,0,4.221,10.187A13.943,13.943,0,0,0,101.439,28.814Zm0,0" transform="translate(-76.864 0)" fill="#fd7f35"/>
    <path id="Path_495" data-name="Path 495" d="M49.783,264.418a35.586,35.586,0,0,0-.485-3.78,29.777,29.777,0,0,0-.93-3.8,18.771,18.771,0,0,0-1.562-3.544,13.374,13.374,0,0,0-2.356-3.07,10.387,10.387,0,0,0-3.384-2.126,11.7,11.7,0,0,0-4.32-.782,4.384,4.384,0,0,0-2.342.993c-.7.458-1.523.987-2.439,1.573a13.976,13.976,0,0,1-3.156,1.391,12.255,12.255,0,0,1-7.721,0,13.945,13.945,0,0,1-3.154-1.39c-.908-.58-1.729-1.109-2.442-1.574a4.379,4.379,0,0,0-2.341-.993,11.68,11.68,0,0,0-4.319.783,10.379,10.379,0,0,0-3.384,2.126A13.376,13.376,0,0,0,3.1,253.295a18.808,18.808,0,0,0-1.562,3.545,29.848,29.848,0,0,0-.929,3.8,35.459,35.459,0,0,0-.485,3.781C.04,265.564,0,266.752,0,267.952a9.932,9.932,0,0,0,2.95,7.514,10.619,10.619,0,0,0,7.6,2.773h28.8a10.617,10.617,0,0,0,7.6-2.773,9.928,9.928,0,0,0,2.95-7.515c0-1.205-.041-2.394-.121-3.533Zm0,0" transform="translate(0 -218.423)" fill="#fd7f35"/>
  </g>
</svg>
